# xmcd CD database file
#
# Track frame offsets:
#	150
#	11380
#	23197
#	37087
#	48977
#	56277
#	68000
#	78797
#	93455
#	110247
#	122120
#	134895
#	143995
#	155657
#	170647
#	180247
#	191725
#	203375
#	215142
#	228252
#	240122
#	250795
#
# Disc length: 3481 seconds
#
# Revision: 2
# Processed by: cddbd v1.5.2PL0 Copyright (c) Steve Scherf et al.
# Submitted via: jetAudio 7
#
DISCID=2e0d9716
DTITLE=Various Artist - Country Moods And Memories Disc 3
DYEAR=1900
DGENRE=Country
TTITLE0=Singing The Blues
TTITLE1=Take These Chains From My Heart
TTITLE2=You Belong To Me
TTITLE3=Mona Lisa
TTITLE4=Don't Let The Stars Get In Your Eyes
TTITLE5=I Walk The Line
TTITLE6=Hey, Good Lookin'
TTITLE7=Heartbreak Hotel
TTITLE8=The Great Pretender
TTITLE9=Secret Love
TTITLE10=Bimbo
TTITLE11=Anytime
TTITLE12=Are You Lonesome Tonight
TTITLE13=Your Cheatin' Heart
TTITLE14=Tammy
TTITLE15=Carolina Moon
TTITLE16=The Story Of My Life
TTITLE17=Walkin' After Midnight
TTITLE18=The Wayward Wind
TTITLE19=Sweet Dreams
TTITLE20=Scarlet Ribbons
TTITLE21=I Believe
EXTD=
EXTT0=
EXTT1=
EXTT2=
EXTT3=
EXTT4=
EXTT5=
EXTT6=
EXTT7=
EXTT8=
EXTT9=
EXTT10=
EXTT11=
EXTT12=
EXTT13=
EXTT14=
EXTT15=
EXTT16=
EXTT17=
EXTT18=
EXTT19=
EXTT20=
EXTT21=
PLAYORDER=
